<svg width="62" height="62" viewBox="0 0 62 62" fill="none" xmlns="http://www.w3.org/2000/svg">
<circle cx="31" cy="31" r="31" fill="#40A2F5"/>
<path fill-rule="evenodd" clip-rule="evenodd" d="M45.7614 21.9886C44.6537 22.4697 43.4812 22.785 42.2817 22.9244C43.5414 22.1861 44.4876 21.0125 44.9419 19.6248C43.7511 20.3202 42.4515 20.8095 41.0979 21.0721C40.5266 20.4751 39.8399 20.0005 39.0795 19.6771C38.3191 19.3536 37.5009 19.1882 36.6745 19.1908C33.3324 19.1908 30.6179 21.8626 30.6179 25.1544C30.6179 25.6233 30.6722 26.0786 30.7768 26.5107C28.3774 26.397 26.0282 25.7842 23.8791 24.7113C21.73 23.6384 19.8283 22.1291 18.2954 20.2797C17.7582 21.1872 17.4752 22.2225 17.4759 23.277C17.4759 25.3463 18.5454 27.1714 20.1709 28.2389C19.2105 28.2093 18.2706 27.9538 17.4274 27.493V27.5666C17.4274 30.4554 19.5141 32.8676 22.2847 33.414C21.3915 33.6496 20.4569 33.6834 19.549 33.5128C19.9454 34.7051 20.703 35.7444 21.7168 36.4867C22.7306 37.2289 23.9502 37.6373 25.2065 37.6552C23.052 39.3188 20.4052 40.2186 17.6832 40.2127C17.193 40.2127 16.7144 40.1817 16.2378 40.1294C19.016 41.8847 22.236 42.814 25.5223 42.8089C36.6629 42.8089 42.7525 33.7221 42.7525 25.8403C42.7535 25.5825 42.7477 25.3247 42.735 25.0673C43.919 24.2267 44.9427 23.1807 45.7575 21.9789L45.7614 21.9886Z" fill="white"/>
</svg>
